<svg width="12" height="12" viewBox="0 0 12 12" fill="currentColor" xmlns="http://www.w3.org/2000/svg">
  <g clip-path="url(#clip0_327_2)">
    <path d="M6.00007 0C5.52596 0 5.14292 0.335156 5.14292 0.75V1.2C3.18757 1.54688 1.71435 3.06094 1.71435 4.875V5.31563C1.71435 6.41719 1.25096 7.48125 0.415246 8.30625L0.217031 8.50078C-0.0079686 8.72109 -0.06154 9.0375 0.0750671 9.30703C0.211674 9.57656 0.51971 9.75 0.85721 9.75H11.1429C11.4804 9.75 11.7858 9.57656 11.9251 9.30703C12.0644 9.0375 12.0081 8.72109 11.7831 8.50078L11.5849 8.30625C10.7492 7.48125 10.2858 6.41953 10.2858 5.31563V4.875C10.2858 3.06094 8.81257 1.54688 6.85721 1.2V0.75C6.85721 0.335156 6.47417 0 6.00007 0ZM7.21346 11.5617C7.53489 11.2805 7.71435 10.8984 7.71435 10.5H6.00007H4.28578C4.28578 10.8984 4.46525 11.2805 4.78667 11.5617C5.1081 11.843 5.54471 12 6.00007 12C6.45542 12 6.89203 11.843 7.21346 11.5617Z" fill="black"/>
  </g>
  <defs>
    <clipPath id="clip0_327_2">
      <rect width="12" height="12" fill="white"/>
    </clipPath>
  </defs>
</svg>
