<svg width="16" height="12" viewBox="0 0 16 12" fill="currentColor" xmlns="http://www.w3.org/2000/svg">
  <g clip-path="url(#clip0_329_2)">
    <path d="M6.58824 0.750024C6.27529 0.750024 6.02353 1.00081 6.02353 1.31252C6.02353 1.62424 6.27529 1.87502 6.58824 1.87502H7.94588L8.33177 2.58518L6.02353 4.50002L4.95765 3.43831C4.67529 3.15706 4.29176 3.00002 3.89176 3.00002H1.50588C1.08941 3.00002 0.752941 3.33518 0.752941 3.75002V4.50002H3.01176C5.09176 4.50002 6.77647 6.17815 6.77647 8.25002C6.77647 8.50784 6.75059 8.75862 6.70118 9.00002H8.35765C8.30824 8.75862 8.28235 8.50784 8.28235 8.25002C8.28235 7.02659 8.87059 5.93909 9.78118 5.25471L10.1435 5.92502C9.46824 6.47581 9.03529 7.31252 9.03529 8.25002C9.03529 9.90706 10.3835 11.25 12.0471 11.25C13.7106 11.25 15.0588 9.90706 15.0588 8.25002C15.0588 6.59299 13.7106 5.25002 12.0471 5.25002C11.7294 5.25002 11.4235 5.29924 11.1365 5.39065L9.84 3.00002H11.2941C11.7106 3.00002 12.0471 2.66487 12.0471 2.25002V1.50002C12.0471 1.08518 11.7106 0.750024 11.2941 0.750024H10.8141C10.6376 0.750024 10.4682 0.810962 10.3318 0.923462L9.21647 1.84924L8.88706 1.23987C8.72235 0.937524 8.40471 0.747681 8.05882 0.747681L6.58824 0.750024ZM10.8871 7.29377L11.5506 8.51721C11.6988 8.79143 12.0424 8.89221 12.3153 8.74456C12.5882 8.5969 12.6918 8.25471 12.5435 7.98284L11.88 6.7594C11.9341 6.75237 11.9906 6.75002 12.0471 6.75002C12.8776 6.75002 13.5529 7.42268 13.5529 8.25002C13.5529 9.07737 12.8776 9.75002 12.0471 9.75002C11.2165 9.75002 10.5412 9.07737 10.5412 8.25002C10.5412 7.88674 10.6706 7.55393 10.8871 7.29377ZM4.40706 8.81252C4.18353 9.36331 3.64235 9.75002 3.01176 9.75002C2.18118 9.75002 1.50588 9.07737 1.50588 8.25002C1.50588 7.42268 2.18118 6.75002 3.01176 6.75002C3.64471 6.75002 4.18588 7.13674 4.40706 7.68752H5.96941C5.70588 6.30002 4.48235 5.25002 3.01176 5.25002C1.34824 5.25002 0 6.59299 0 8.25002C0 9.90706 1.34824 11.25 3.01176 11.25C4.48235 11.25 5.70588 10.2 5.97176 8.81252H4.40941H4.40706ZM3.01176 9.00002C3.21146 9.00002 3.40297 8.92101 3.54417 8.78035C3.68538 8.6397 3.76471 8.44894 3.76471 8.25002C3.76471 8.05111 3.68538 7.86035 3.54417 7.71969C3.40297 7.57904 3.21146 7.50002 3.01176 7.50002C2.81207 7.50002 2.62056 7.57904 2.47935 7.71969C2.33815 7.86035 2.25882 8.05111 2.25882 8.25002C2.25882 8.44894 2.33815 8.6397 2.47935 8.78035C2.62056 8.92101 2.81207 9.00002 3.01176 9.00002Z" fill="black"/>
  </g>
  <defs>
    <clipPath id="clip0_329_2">
      <rect width="15.0588" height="12" fill="white"/>
    </clipPath>
  </defs>
</svg>
