<svg width="12" height="12" viewBox="0 0 12 12" fill="currentColor" xmlns="http://www.w3.org/2000/svg">
<g clip-path="url(#clip0_325_2)">
<path d="M11.279 3.90469C11.354 4.10859 11.2907 4.33594 11.129 4.48125L10.1142 5.40469C10.1399 5.59922 10.154 5.79844 10.154 6C10.154 6.20156 10.1399 6.40078 10.1142 6.59531L11.129 7.51875C11.2907 7.66406 11.354 7.89141 11.279 8.09531C11.1759 8.37422 11.0517 8.64141 10.9087 8.89922L10.7985 9.08906C10.6439 9.34687 10.4704 9.59062 10.2806 9.82031C10.1423 9.98906 9.9126 10.0453 9.70635 9.97969L8.40088 9.56484C8.08682 9.80625 7.73995 10.0078 7.36963 10.1602L7.07667 11.4984C7.02979 11.7117 6.86573 11.8805 6.6501 11.9156C6.32667 11.9695 5.99385 11.9977 5.65401 11.9977C5.31417 11.9977 4.98135 11.9695 4.65792 11.9156C4.44229 11.8805 4.27823 11.7117 4.23135 11.4984L3.93838 10.1602C3.56807 10.0078 3.2212 9.80625 2.90713 9.56484L1.60401 9.98203C1.39776 10.0477 1.16807 9.98906 1.02979 9.82266C0.839947 9.59297 0.66651 9.34922 0.511822 9.09141L0.401666 8.90156C0.258697 8.64375 0.134479 8.37656 0.0313537 8.09766C-0.0436463 7.89375 0.0196349 7.66641 0.181354 7.52109L1.1962 6.59766C1.17042 6.40078 1.15635 6.20156 1.15635 6C1.15635 5.79844 1.17042 5.59922 1.1962 5.40469L0.181354 4.48125C0.0196349 4.33594 -0.0436463 4.10859 0.0313537 3.90469C0.134479 3.62578 0.258697 3.35859 0.401666 3.10078L0.511822 2.91094C0.66651 2.65312 0.839947 2.40938 1.02979 2.17969C1.16807 2.01094 1.39776 1.95469 1.60401 2.02031L2.90948 2.43516C3.22354 2.19375 3.57042 1.99219 3.94073 1.83984L4.2337 0.501562C4.28057 0.288281 4.44463 0.119531 4.66026 0.084375C4.9837 0.028125 5.31651 0 5.65635 0C5.9962 0 6.32901 0.028125 6.65245 0.0820312C6.86807 0.117188 7.03213 0.285937 7.07901 0.499219L7.37198 1.8375C7.74229 1.98984 8.08917 2.19141 8.40323 2.43281L9.7087 2.01797C9.91495 1.95234 10.1446 2.01094 10.2829 2.17734C10.4728 2.40703 10.6462 2.65078 10.8009 2.90859L10.911 3.09844C11.054 3.35625 11.1782 3.62344 11.2814 3.90234L11.279 3.90469ZM5.65635 7.875C6.15363 7.875 6.63055 7.67746 6.98218 7.32583C7.33381 6.97419 7.53135 6.49728 7.53135 6C7.53135 5.50272 7.33381 5.02581 6.98218 4.67417C6.63055 4.32254 6.15363 4.125 5.65635 4.125C5.15907 4.125 4.68216 4.32254 4.33053 4.67417C3.9789 5.02581 3.78135 5.50272 3.78135 6C3.78135 6.49728 3.9789 6.97419 4.33053 7.32583C4.68216 7.67746 5.15907 7.875 5.65635 7.875Z" fill="black"/>
</g>
<defs>
<clipPath id="clip0_325_2">
<rect width="12" height="11.9977" fill="currentColor"/>
</clipPath>
</defs>
</svg>
